<svg xmlns="http://www.w3.org/2000/svg" width="618.123" height="542.767" viewBox="0 0 618.123 542.767">
  <path id="iconmonstr-twitter-1" d="M618.123,66.5a238.649,238.649,0,0,1-72.836,21.567c26.193-16.948,46.308-43.8,55.76-75.8a242.9,242.9,0,0,1-80.536,33.255c-23.1-26.632-56.095-43.273-92.564-43.273-81.876,0-142.039,82.539-123.547,168.223-105.364-5.7-198.8-60.249-261.363-143.15C9.813,88.906,25.807,169.47,82.262,210.266a119.208,119.208,0,0,1-57.408-17.142C23.463,256.6,65.573,315.987,126.561,329.205a117.937,117.937,0,0,1-57.279,2.338c16.123,54.433,62.946,94.033,118.474,95.146C134.442,471.854,67.272,492.03,0,483.459c56.12,38.876,122.8,61.557,194.4,61.557,235.453,0,368.479-214.864,360.443-407.576A270.7,270.7,0,0,0,618.123,66.5Z" transform="translate(0 -2.248)" fill="#4d9fec"/>
</svg>
